<mxfile host="65bd71144e">
    <diagram name="Page-1" id="52a04d89-c75d-2922-d76d-85b35f80e030">
        <mxGraphModel dx="790" dy="549" grid="1" gridSize="10" guides="1" tooltips="1" connect="1" arrows="1" fold="1" page="1" pageScale="1" pageWidth="1169" pageHeight="827" background="#ffffff" math="0" shadow="0">
            <root>
                <mxCell id="0"/>
                <mxCell id="1" parent="0"/>
                <mxCell id="1fdf3b25b50cf41e-27" value="" style="edgeStyle=none;html=1;labelBackgroundColor=none;startFill=0;startSize=8;endFill=1;endSize=8;fontFamily=Verdana;fontSize=12;strokeColor=#E07A5F;fontColor=default;entryX=0;entryY=0.5;entryDx=0;entryDy=0;exitX=1;exitY=0.5;exitDx=0;exitDy=0;" parent="1" source="E9xWMLLltAmGpABIkwgl-27" target="E9xWMLLltAmGpABIkwgl-3" edge="1">
                    <mxGeometry relative="1" as="geometry">
                        <mxPoint x="380" y="176.66666666666663" as="targetPoint"/>
                    </mxGeometry>
                </mxCell>
                <mxCell id="E9xWMLLltAmGpABIkwgl-33" value="Extract" style="edgeLabel;html=1;align=center;verticalAlign=middle;resizable=0;points=[];strokeColor=#E07A5F;fontColor=#393C56;fillColor=#F2CC8F;labelBackgroundColor=#FFFFFF;" parent="1fdf3b25b50cf41e-27" vertex="1" connectable="0">
                    <mxGeometry x="0.0286" y="-1" relative="1" as="geometry">
                        <mxPoint x="-5" y="-1" as="offset"/>
                    </mxGeometry>
                </mxCell>
                <mxCell id="1fdf3b25b50cf41e-29" style="edgeStyle=none;html=1;labelBackgroundColor=none;startFill=0;startSize=8;endFill=1;endSize=8;fontFamily=Verdana;fontSize=12;strokeColor=#E07A5F;fontColor=default;exitX=0.5;exitY=1;exitDx=0;exitDy=0;entryX=0.5;entryY=0;entryDx=0;entryDy=0;" parent="1" source="E9xWMLLltAmGpABIkwgl-3" target="E9xWMLLltAmGpABIkwgl-19" edge="1">
                    <mxGeometry relative="1" as="geometry">
                        <mxPoint x="494.6875" y="212" as="sourcePoint"/>
                        <mxPoint x="320" y="330" as="targetPoint"/>
                    </mxGeometry>
                </mxCell>
                <mxCell id="E9xWMLLltAmGpABIkwgl-32" value="Store" style="edgeLabel;html=1;align=center;verticalAlign=middle;resizable=0;points=[];strokeColor=#E07A5F;fontColor=#393C56;fillColor=#F2CC8F;labelBackgroundColor=#FFFFFF;" parent="1fdf3b25b50cf41e-29" vertex="1" connectable="0">
                    <mxGeometry x="-0.0844" relative="1" as="geometry">
                        <mxPoint as="offset"/>
                    </mxGeometry>
                </mxCell>
                <mxCell id="1fdf3b25b50cf41e-40" style="edgeStyle=none;html=1;labelBackgroundColor=none;startFill=0;startSize=8;endFill=1;endSize=8;fontFamily=Verdana;fontSize=12;strokeColor=#E07A5F;fontColor=default;entryX=0;entryY=0.5;entryDx=0;entryDy=0;exitX=1;exitY=0.5;exitDx=0;exitDy=0;" parent="1" source="E9xWMLLltAmGpABIkwgl-20" target="E9xWMLLltAmGpABIkwgl-6" edge="1">
                    <mxGeometry relative="1" as="geometry">
                        <mxPoint x="390" y="355" as="sourcePoint"/>
                        <mxPoint x="450" y="340" as="targetPoint"/>
                    </mxGeometry>
                </mxCell>
                <mxCell id="1fdf3b25b50cf41e-44" value="" style="edgeStyle=none;html=1;labelBackgroundColor=none;startFill=0;startSize=8;endFill=1;endSize=8;fontFamily=Verdana;fontSize=12;strokeColor=#E07A5F;fontColor=default;exitX=0;exitY=0.75;exitDx=0;exitDy=0;entryX=1;entryY=0.75;entryDx=0;entryDy=0;" parent="1" source="E9xWMLLltAmGpABIkwgl-4" target="E9xWMLLltAmGpABIkwgl-6" edge="1">
                    <mxGeometry relative="1" as="geometry">
                        <mxPoint x="450" y="536" as="sourcePoint"/>
                        <mxPoint x="490" y="536" as="targetPoint"/>
                    </mxGeometry>
                </mxCell>
                <mxCell id="E9xWMLLltAmGpABIkwgl-37" value="Query" style="edgeLabel;html=1;align=center;verticalAlign=middle;resizable=0;points=[];strokeColor=#E07A5F;fontColor=#393C56;fillColor=#F2CC8F;labelBackgroundColor=#FFFFFF;" parent="1fdf3b25b50cf41e-44" vertex="1" connectable="0">
                    <mxGeometry x="0.0873" relative="1" as="geometry">
                        <mxPoint x="2" as="offset"/>
                    </mxGeometry>
                </mxCell>
                <mxCell id="1fdf3b25b50cf41e-45" value="" style="edgeStyle=none;html=1;labelBackgroundColor=none;startFill=0;startSize=8;endFill=1;endSize=8;fontFamily=Verdana;fontSize=12;strokeColor=#E07A5F;fontColor=default;exitX=1;exitY=0.25;exitDx=0;exitDy=0;entryX=0;entryY=0.25;entryDx=0;entryDy=0;" parent="1" source="E9xWMLLltAmGpABIkwgl-6" target="E9xWMLLltAmGpABIkwgl-4" edge="1">
                    <mxGeometry relative="1" as="geometry">
                        <mxPoint x="560" y="510" as="sourcePoint"/>
                        <mxPoint x="560" y="427" as="targetPoint"/>
                    </mxGeometry>
                </mxCell>
                <mxCell id="E9xWMLLltAmGpABIkwgl-35" value="Send Result" style="edgeLabel;html=1;align=center;verticalAlign=middle;resizable=0;points=[];strokeColor=#E07A5F;fontColor=#393C56;fillColor=#F2CC8F;labelBackgroundColor=#FFFFFF;" parent="1fdf3b25b50cf41e-45" vertex="1" connectable="0">
                    <mxGeometry x="0.0291" y="-2" relative="1" as="geometry">
                        <mxPoint x="-4" y="-1" as="offset"/>
                    </mxGeometry>
                </mxCell>
                <mxCell id="E9xWMLLltAmGpABIkwgl-3" value="&lt;b&gt;Data Collection Module&lt;/b&gt;" style="whiteSpace=wrap;html=1;rounded=0;shadow=0;comic=0;labelBackgroundColor=none;strokeWidth=1;fontFamily=Verdana;fontSize=12;align=center;fillColor=#F2CC8F;strokeColor=#E07A5F;fontColor=#393C56;" parent="1" vertex="1">
                    <mxGeometry x="270" y="220" width="140" height="70" as="geometry"/>
                </mxCell>
                <mxCell id="E9xWMLLltAmGpABIkwgl-4" value="&lt;b&gt;API Module&lt;/b&gt;" style="whiteSpace=wrap;html=1;rounded=0;shadow=0;comic=0;labelBackgroundColor=none;strokeWidth=1;fontFamily=Verdana;fontSize=12;align=center;fillColor=#F2CC8F;strokeColor=#E07A5F;fontColor=#393C56;" parent="1" vertex="1">
                    <mxGeometry x="710" y="460" width="140" height="70" as="geometry"/>
                </mxCell>
                <mxCell id="E9xWMLLltAmGpABIkwgl-5" value="&lt;b&gt;GUI Module&lt;/b&gt;" style="whiteSpace=wrap;html=1;rounded=0;shadow=0;comic=0;labelBackgroundColor=none;strokeWidth=1;fontFamily=Verdana;fontSize=12;align=center;fillColor=#F2CC8F;strokeColor=#E07A5F;fontColor=#393C56;" parent="1" vertex="1">
                    <mxGeometry x="960" y="460" width="140" height="70" as="geometry"/>
                </mxCell>
                <mxCell id="E9xWMLLltAmGpABIkwgl-6" value="&lt;b&gt;Data Analysis Module&lt;/b&gt;" style="whiteSpace=wrap;html=1;rounded=0;shadow=0;comic=0;labelBackgroundColor=none;strokeWidth=1;fontFamily=Verdana;fontSize=12;align=center;fillColor=#F2CC8F;strokeColor=#E07A5F;fontColor=#393C56;" parent="1" vertex="1">
                    <mxGeometry x="460" y="460" width="140" height="70" as="geometry"/>
                </mxCell>
                <mxCell id="E9xWMLLltAmGpABIkwgl-8" value="" style="edgeStyle=none;html=1;labelBackgroundColor=none;startFill=0;startSize=8;endFill=1;endSize=8;fontFamily=Verdana;fontSize=12;strokeColor=#E07A5F;fontColor=default;exitX=1;exitY=0.25;exitDx=0;exitDy=0;entryX=0;entryY=0.25;entryDx=0;entryDy=0;" parent="1" source="E9xWMLLltAmGpABIkwgl-4" target="E9xWMLLltAmGpABIkwgl-5" edge="1">
                    <mxGeometry relative="1" as="geometry">
                        <mxPoint x="560" y="353" as="sourcePoint"/>
                        <mxPoint x="620" y="353" as="targetPoint"/>
                    </mxGeometry>
                </mxCell>
                <mxCell id="E9xWMLLltAmGpABIkwgl-36" value="Update GUI" style="edgeLabel;html=1;align=center;verticalAlign=middle;resizable=0;points=[];strokeColor=#E07A5F;fontColor=#393C56;fillColor=#F2CC8F;labelBackgroundColor=#FFFFFF;" parent="E9xWMLLltAmGpABIkwgl-8" vertex="1" connectable="0">
                    <mxGeometry x="-0.0145" y="2" relative="1" as="geometry">
                        <mxPoint x="1" y="3" as="offset"/>
                    </mxGeometry>
                </mxCell>
                <mxCell id="E9xWMLLltAmGpABIkwgl-9" value="" style="edgeStyle=none;html=1;labelBackgroundColor=none;startFill=0;startSize=8;endFill=1;endSize=8;fontFamily=Verdana;fontSize=12;strokeColor=#E07A5F;fontColor=default;exitX=0;exitY=0.75;exitDx=0;exitDy=0;entryX=1;entryY=0.75;entryDx=0;entryDy=0;" parent="1" source="E9xWMLLltAmGpABIkwgl-5" target="E9xWMLLltAmGpABIkwgl-4" edge="1">
                    <mxGeometry relative="1" as="geometry">
                        <mxPoint x="740" y="353" as="sourcePoint"/>
                        <mxPoint x="810" y="353" as="targetPoint"/>
                    </mxGeometry>
                </mxCell>
                <mxCell id="E9xWMLLltAmGpABIkwgl-38" value="Send Query" style="edgeLabel;html=1;align=center;verticalAlign=middle;resizable=0;points=[];strokeColor=#E07A5F;fontColor=#393C56;fillColor=#F2CC8F;labelBackgroundColor=#FFFFFF;" parent="E9xWMLLltAmGpABIkwgl-9" vertex="1" connectable="0">
                    <mxGeometry x="-0.0764" y="1" relative="1" as="geometry">
                        <mxPoint x="-3" y="-1" as="offset"/>
                    </mxGeometry>
                </mxCell>
                <mxCell id="E9xWMLLltAmGpABIkwgl-19" value="&lt;b style=&quot;font-size: 15px; text-wrap: nowrap;&quot;&gt;Database&lt;/b&gt;" style="swimlane;childLayout=stackLayout;horizontal=1;startSize=50;horizontalStack=0;rounded=1;fontSize=14;fontStyle=0;strokeWidth=2;resizeParent=0;resizeLast=1;shadow=0;dashed=0;align=center;arcSize=4;whiteSpace=wrap;html=1;strokeColor=#E07A5F;fontColor=#393C56;fillColor=#F2CC8F;verticalAlign=middle;" parent="1" vertex="1">
                    <mxGeometry x="260" y="335" width="160" height="270" as="geometry">
                        <mxRectangle x="200" y="260" width="110" height="50" as="alternateBounds"/>
                    </mxGeometry>
                </mxCell>
                <mxCell id="E9xWMLLltAmGpABIkwgl-20" value="&lt;p style=&quot;text-align: center; margin: 4px 0px 0px; font-size: 15px;&quot;&gt;&lt;/p&gt;&lt;p style=&quot;text-align: justify; margin: 0px 0px 0px 8px;&quot;&gt;&lt;b&gt;Articles' attributes&amp;nbsp; &amp;nbsp; &amp;nbsp; &amp;nbsp; &amp;nbsp; &amp;nbsp;&lt;/b&gt;&lt;/p&gt;&lt;hr&gt;&lt;p style=&quot;margin: 0px 0px 0px 8px;&quot;&gt;int id&lt;/p&gt;&lt;p style=&quot;margin: 0px 0px 0px 8px;&quot;&gt;String link&lt;/p&gt;&lt;p style=&quot;margin: 0px 0px 0px 8px;&quot;&gt;String source&lt;/p&gt;&lt;p style=&quot;margin: 0px 0px 0px 8px;&quot;&gt;String type&lt;/p&gt;&lt;p style=&quot;margin: 0px 0px 0px 8px;&quot;&gt;String title&lt;/p&gt;&lt;p style=&quot;margin: 0px 0px 0px 8px;&quot;&gt;&lt;span style=&quot;background-color: initial;&quot;&gt;String&amp;nbsp;&lt;/span&gt;summary&lt;/p&gt;&lt;p style=&quot;margin: 0px 0px 0px 8px;&quot;&gt;&lt;span style=&quot;background-color: initial;&quot;&gt;String&amp;nbsp;&lt;/span&gt;content&lt;/p&gt;&lt;p style=&quot;margin: 0px 0px 0px 8px;&quot;&gt;Date publishDate&lt;/p&gt;&lt;p style=&quot;margin: 0px 0px 0px 8px;&quot;&gt;&lt;span style=&quot;background-color: initial;&quot;&gt;String&amp;nbsp;&lt;/span&gt;tags&lt;/p&gt;&lt;p style=&quot;margin: 0px 0px 0px 8px;&quot;&gt;&lt;span style=&quot;background-color: initial;&quot;&gt;String&amp;nbsp;&lt;/span&gt;author&lt;/p&gt;&lt;p style=&quot;margin: 0px 0px 0px 8px;&quot;&gt;&lt;span style=&quot;background-color: initial;&quot;&gt;String&amp;nbsp;&lt;/span&gt;category&lt;/p&gt;&lt;p style=&quot;margin: 0px 0px 0px 8px;&quot;&gt;&lt;span style=&quot;background-color: initial;&quot;&gt;String&amp;nbsp;&lt;/span&gt;image&lt;br&gt;&lt;/p&gt;" style="align=left;strokeColor=none;fillColor=none;spacingLeft=4;fontSize=12;verticalAlign=top;resizable=0;rotatable=0;part=1;html=1;fontColor=#393C56;" parent="E9xWMLLltAmGpABIkwgl-19" vertex="1">
                    <mxGeometry y="50" width="160" height="220" as="geometry"/>
                </mxCell>
                <mxCell id="E9xWMLLltAmGpABIkwgl-21" style="edgeStyle=orthogonalEdgeStyle;rounded=0;orthogonalLoop=1;jettySize=auto;html=1;exitX=0.5;exitY=1;exitDx=0;exitDy=0;strokeColor=#E07A5F;fontColor=#393C56;fillColor=#F2CC8F;" parent="E9xWMLLltAmGpABIkwgl-19" source="E9xWMLLltAmGpABIkwgl-20" target="E9xWMLLltAmGpABIkwgl-20" edge="1">
                    <mxGeometry relative="1" as="geometry"/>
                </mxCell>
                <mxCell id="E9xWMLLltAmGpABIkwgl-27" value="&lt;b style=&quot;font-family: Verdana;&quot;&gt;News Websites&lt;/b&gt;" style="swimlane;fontStyle=1;align=center;verticalAlign=middle;childLayout=stackLayout;horizontal=1;startSize=50;horizontalStack=0;resizeParent=1;resizeParentMax=0;resizeLast=0;collapsible=1;marginBottom=0;whiteSpace=wrap;html=1;strokeColor=#E07A5F;fontColor=#393C56;fillColor=#F2CC8F;" parent="1" vertex="1">
                    <mxGeometry x="60" y="215" width="140" height="80" as="geometry">
                        <mxRectangle x="20" y="145" width="140" height="50" as="alternateBounds"/>
                    </mxGeometry>
                </mxCell>
                <mxCell id="E9xWMLLltAmGpABIkwgl-28" value="Collection of web urls" style="text;strokeColor=none;fillColor=none;align=center;verticalAlign=middle;spacingLeft=4;spacingRight=4;overflow=hidden;rotatable=0;points=[[0,0.5],[1,0.5]];portConstraint=eastwest;whiteSpace=wrap;html=1;fontColor=#393C56;" parent="E9xWMLLltAmGpABIkwgl-27" vertex="1">
                    <mxGeometry y="50" width="140" height="30" as="geometry"/>
                </mxCell>
            </root>
        </mxGraphModel>
    </diagram>
</mxfile>